<svg id="Capa_1" data-name="Capa 1" xmlns="http://www.w3.org/2000/svg" viewBox="0 0 942.89121 882"><defs><style>.cls-1{fill:#43b85d;}.cls-2{fill:#f47e00;}.cls-3{fill:#804cd2;}.cls-4,.cls-5{fill:#fff;}.cls-5{font-size:78.37764px;font-family:Optimus;}</style></defs><title>zsrt</title><rect width="942.89121" height="882"/><rect class="cls-1" x="235.89784" y="438.51147" width="575.94493" height="137.88659" transform="translate(-262.74963 277.87861) rotate(-33.77478)"/><rect class="cls-2" x="170.21972" y="509.43023" width="541.38628" height="137.88659"/><rect class="cls-3" x="229.72866" y="158.18229" width="541.38628" height="137.88659"/><path class="cls-4" d="M272.22,214.48817H911.48729v12.91448c-.74692,1.031-1.97132,1.97771-2.17035,3.10545q-6.46,36.59191-12.69871,73.22278c-4.49893,26.502-8.78058,53.04124-13.35741,79.5296-2.7633,15.99256-5.908,31.9192-8.67712,46.78018-59.24891,36.5563-117.28091,72.36171-175.31281,108.16712l.60371,2.12726H855.50946c-3.28446,20.18207-6.16146,39.02326-9.44828,57.79268-5.36462,30.63467-11.09984,61.20434-16.48744,91.8351C823.76,723.016,818.166,756.108,812.4762,789.183H171.05654v-4.30483c.70341-.668,1.9086-1.25152,2.03761-2.01644,4.52553-26.83487,8.76237-53.71937,13.4315-80.52872,7.403-42.50662,15.08544-84.96456,22.84528-128.5417,57.61853-35.57554,116.10171-71.68491,174.5849-107.79432l-.788-2.77727H228.59721c1.83511-10.72969,3.43682-20.0945,5.03844-29.45929q6.88332-40.24746,13.77666-80.49315,7.04624-40.77855,14.24352-81.53084C265.05935,252.63266,268.69053,233.56947,272.22,214.48817ZM765.93029,422.3189c-3.09055-.11881-6.57758-1.23609-9.20629-.192-15.39527,6.11459-30.50257,12.95078-45.86651,19.14824Q580.98466,493.66266,451.03,545.84739c-47.11231,18.92129-94.30413,37.64457-141.41339,56.57335-3.57517,1.43656-6.77676,3.80289-10.152,5.737,22.72185,6.87373,44.72985,11.477,66.66874,16.38878,23.34621,5.22684,46.59861,10.87256,69.94359,16.105,28.8819,6.4735,57.82718,12.66357,86.72615,19.06146q44.32282,9.81248,88.60786,19.795c43.55878,9.80394,87.0883,19.73876,130.67862,29.39973,4.67411,1.036,9.66931.62333,15.15847.91711,5.68733-34.017,11.17274-66.82612,16.8627-100.85895H468.63181a13.4946,13.4946,0,0,1,5.53471-6.768c10.71554-6.77457,21.51266-13.42034,32.29165-20.09431q36.42762-22.55456,72.86888-45.08695,64.90706-40.05077,129.8533-80.038,28.442-17.50489,56.98175-34.85077l-.137-.521Q765.97776,421.96287,765.93029,422.3189ZM783.14606,394.568a11.60747,11.60747,0,0,0-2.65656-1.42883q-36.95357-8.43-73.93021-16.75909Q652.45444,364.22917,598.328,352.175c-47.784-10.59559-95.61381-20.986-143.377-31.67437-35.38435-7.91825-70.67175-16.26963-106.0561-24.18791-6.75876-1.51246-13.76838-1.904-21.8768-2.97274-5.70781,34.35918-11.19768,67.40637-16.98909,102.26881H616.48615l.49372,1.7396C519.66428,457.39821,422.34871,517.448,323.1807,578.641,334.49507,580.26068,776.53248,401.30706,783.14606,394.568ZM253.90073,717.21258H711.34156c-.32909-1.39534-.34574-1.97148-.48989-2.00537-20.47756-4.81755-40.91792-9.80739-61.46216-14.32432-28.53776-6.27444-57.20994-11.94194-85.72212-18.3269-35.70264-7.99519-71.271-16.58827-106.95242-24.68032q-71.03019-16.10858-142.15347-31.80582c-14.32029-3.16931-28.75313-5.83011-43.53-8.80341-3.38859,18.12839-6.61426,34.316-9.39814,50.57926C258.85054,684.10291,256.50958,700.43582,253.90073,717.21258Zm576.852-431.28931H372.6795a64.71993,64.71993,0,0,0,16.69534,6.157c29.54969,6.78374,59.14111,13.3853,88.70473,20.10875,14.40524,3.2761,28.75212,6.81313,43.1779,9.99405,22.695,5.00433,45.4629,9.67889,68.14664,14.73251,22.3323,4.97532,44.57965,10.33068,66.89753,15.3722q51.41666,11.61478,102.882,23.0135c17.41934,3.86405,34.87986,7.5423,54.09289,11.68659C819.06508,353.513,824.78026,320.462,830.75274,285.92327Z" transform="translate(-69.05439 -99)"/><text class="cls-5" transform="translate(100.69121 747.87598)">SimRacing Team</text></svg>